<svg xmlns="http://www.w3.org/2000/svg" viewBox="0 0 100 100"><path fill="#FFF" d="M50 0C26.703 0 7.127 15.936 1.576 37.5a2.387 2.387 0 0 0-.084.595 2.381 2.381 0 0 0 2.381 2.381h20.16c.96 0 1.783-.572 2.159-1.391 0 0 .03-.058.041-.083C30.391 30.033 39.465 23.809 50 23.809c14.464 0 26.19 11.726 26.19 26.19 0 14.465-11.726 26.19-26.19 26.19-10.535 0-19.609-6.225-23.767-15.192a1.483 1.483 0 0 0-.041-.082 2.376 2.376 0 0 0-2.16-1.392H3.874a2.38 2.38 0 0 0-2.381 2.38c0 .206.035.406.084.597C7.127 84.063 26.703 100 50 100c27.614 0 50-22.387 50-50 0-27.615-22.386-50-50-50z" class="turn"/><path fill="#FFF" d="M38.096 50a11.904 11.904 0 1 0 23.808 0 11.904 11.904 0 1 0-23.808 0" class="circle"/></svg>