<svg xmlns="http://www.w3.org/2000/svg" viewBox="0 0 38 38"><g fill="#FFF"><path stroke="#FFF" stroke-width=".7" d="M32.2 15c-.1-1.5-.9-2.8-2.3-3.9l-.5-.4-.4.5c-.7 1.1-1 2.5-.9 3.7.1.8.4 1.7.9 2.3-.4.3-1.7.9-3.4.9H.4C-.1 20.8.7 31 12.4 31c8.7 0 15.8-3.9 19.1-12.1 1.1 0 3.9.2 5.3-2.5l.4-.7-.5-.4c-.9-.5-3-.7-4.5-.3z"/><path d="M16.6 5h3.9v3.6h-3.9zM16.6 9.3h3.9v3.6h-3.9zM12 9.3h3.9v3.6H12zM7.4 9.3h3.9v3.6H7.4zM2.8 13.5h3.9v3.6H2.8zM7.4 13.5h3.9v3.6H7.4zM12 13.5h3.9v3.6H12zM16.6 13.5h3.9v3.6h-3.9zM21.2 13.5h3.9v3.6h-3.9z"/></g></svg>
